<?xml version="1.0" standalone="no"?>
<!DOCTYPE svg PUBLIC "-//W3C//DTD SVG 20010904//EN"
 "http://www.w3.org/TR/2001/REC-SVG-20010904/DTD/svg10.dtd">
<svg version="1.0" xmlns="http://www.w3.org/2000/svg"
 width="1091.000000pt" height="703.000000pt" viewBox="0 0 1091.000000 703.000000"
 preserveAspectRatio="xMidYMid meet">

<g transform="translate(0.000000,703.000000) scale(0.100000,-0.100000)"
fill="#000000" stroke="none">
<path d="M3210 7023 c-19 -1 -84 -8 -145 -13 -472 -46 -966 -211 -1393 -464
-822 -490 -1414 -1323 -1602 -2256 -52 -258 -64 -379 -64 -680 -1 -297 12
-437 60 -680 269 -1349 1336 -2418 2682 -2685 183 -36 345 -55 526 -62 l158
-6 -3 114 c-4 100 -7 118 -27 147 -36 49 -66 59 -212 71 -631 53 -1207 279
-1693 666 -913 727 -1343 1905 -1112 3050 153 758 584 1426 1219 1889 1074
784 2546 791 3623 19 201 -144 475 -403 627 -593 116 -146 262 -375 349 -548
189 -379 288 -747 322 -1203 11 -150 47 -181 218 -187 l107 -4 0 88 c0 194
-32 446 -86 684 -313 1368 -1436 2410 -2824 2619 -219 33 -571 50 -730 34z"/>
<path d="M3231 6250 c-521 -43 -987 -219 -1401 -528 -150 -112 -410 -372 -522
-522 -494 -663 -654 -1485 -443 -2287 46 -175 92 -298 180 -478 257 -525 677
-947 1200 -1205 181 -89 302 -136 480 -185 193 -53 481 -95 654 -95 l53 0 -4
113 c-3 89 -7 119 -23 145 -27 45 -84 69 -185 76 -432 30 -902 220 -1257 507
-469 379 -778 941 -853 1549 -15 125 -12 430 5 567 137 1057 987 1891 2054
2013 157 19 505 8 661 -20 957 -170 1714 -921 1890 -1875 6 -33 17 -121 25
-195 15 -142 23 -163 79 -204 23 -18 45 -21 143 -25 l116 -3 -7 121 c-18 323
-77 592 -193 881 -353 880 -1170 1512 -2113 1634 -149 19 -407 27 -539 16z"/>
<path d="M3174 5465 c-814 -116 -1448 -728 -1600 -1547 -24 -129 -29 -409 -10
-555 73 -551 374 -1030 841 -1335 263 -172 590 -280 893 -295 l132 -6 0 99
c-1 160 -39 216 -159 229 -549 63 -1021 398 -1251 889 -105 224 -145 407 -145
666 1 193 14 284 66 455 174 566 690 1003 1275 1080 389 51 750 -34 1085 -256
121 -81 322 -281 406 -404 148 -220 240 -467 268 -726 13 -118 58 -151 219
-157 l109 -4 -6 128 c-14 276 -106 582 -250 825 -285 483 -742 799 -1312 906
-115 21 -433 26 -561 8z"/>
<path d="M3229 4481 c-101 -22 -235 -82 -323 -145 -85 -61 -199 -185 -251
-273 -86 -148 -132 -337 -122 -508 24 -402 296 -731 684 -827 102 -25 282 -29
376 -9 l57 12 0 97 -1 97 -39 -45 -40 -45 -119 -4 c-96 -2 -134 1 -201 18
-160 40 -318 137 -413 254 l-39 47 11 68 c6 37 19 95 29 127 16 53 22 61 51
71 32 10 37 8 98 -38 148 -111 372 -193 566 -205 l97 -6 0 46 0 47 -67 0
c-175 0 -387 75 -548 192 -42 31 -44 35 -39 69 3 23 -1 51 -10 74 l-16 38 37
46 c61 77 125 140 194 192 65 48 67 49 95 34 34 -17 72 -19 109 -5 24 9 32 5
86 -47 110 -104 203 -250 254 -395 l28 -78 74 0 75 0 -5 158 c-5 175 -20 248
-83 404 -45 110 -41 125 32 120 49 -4 106 -14 176 -33 47 -12 74 -55 119 -189
30 -86 33 -106 33 -220 1 -69 -2 -137 -7 -153 -5 -17 -24 -38 -53 -56 l-46
-28 31 -19 c20 -12 44 -44 69 -92 l39 -74 21 50 c52 120 66 199 66 357 -1 167
-18 254 -74 374 -64 136 -188 286 -300 362 -74 50 -194 107 -272 130 -106 31
-321 36 -439 10z m198 -160 c172 -130 191 -174 87 -203 -54 -15 -58 -15 -88 3
-36 22 -100 24 -135 5 -20 -11 -32 -9 -95 15 -40 15 -115 37 -166 47 l-94 19
63 42 c34 24 86 53 114 66 57 25 177 59 224 64 6 0 47 -26 90 -58z m218 27
c85 -24 151 -57 230 -113 60 -43 112 -92 104 -99 -2 -1 -40 2 -84 8 -73 10
-84 14 -111 44 -23 27 -40 35 -81 40 -46 6 -58 14 -122 75 -39 38 -71 71 -71
73 0 6 61 -6 135 -28z m-592 -253 c34 -9 88 -26 120 -38 73 -28 75 -50 9 -92
-61 -38 -192 -164 -249 -238 -41 -53 -48 -58 -80 -55 -32 3 -39 10 -78 73 -23
39 -48 87 -56 108 -13 37 -12 41 19 101 18 34 49 86 70 115 l37 52 73 -5 c41
-3 101 -13 135 -21z m537 -65 c0 -18 64 -50 98 -50 31 0 35 -4 63 -65 16 -35
38 -98 49 -139 20 -73 43 -263 33 -279 -3 -5 -20 26 -38 67 -52 120 -121 221
-222 326 -51 54 -93 105 -93 113 0 10 13 20 33 26 44 13 77 13 77 1z m-874
-356 c38 -61 40 -69 31 -104 -9 -31 -7 -44 10 -79 19 -39 20 -46 8 -84 -8 -23
-19 -62 -25 -87 -9 -31 -14 -40 -20 -30 -21 39 -50 144 -60 221 -10 80 -4 229
9 229 3 -1 24 -30 47 -66z"/>
<path d="M8595 3294 c-89 -19 -217 -80 -274 -131 l-45 -40 49 -64 c102 -136
113 -140 204 -85 81 49 140 66 231 66 101 0 172 -26 239 -86 54 -48 104 -137
117 -208 l7 -39 -302 6 -301 6 0 -120 0 -119 301 0 302 0 -6 -37 c-10 -58 -63
-156 -110 -203 -23 -24 -69 -56 -102 -71 -53 -26 -71 -29 -155 -29 -117 0
-152 9 -230 62 -34 22 -73 40 -87 40 -18 1 -46 -21 -101 -76 l-77 -76 55 -55
c110 -111 264 -166 465 -166 211 0 361 57 490 186 292 292 262 874 -57 1111
-169 126 -396 173 -613 128z"/>
<path d="M3730 2590 l0 -710 145 0 145 0 2 464 3 464 190 -370 c214 -417 207
-408 313 -408 105 0 104 -1 248 277 70 136 159 307 196 378 l68 130 0 -467 0
-468 145 0 145 0 0 710 0 710 -155 0 -155 0 -29 -27 c-29 -28 -451 -851 -451
-879 0 -8 -3 -14 -7 -13 -5 0 -105 195 -223 432 -118 238 -227 444 -242 460
l-26 27 -156 0 -156 0 0 -710z"/>
<path d="M5600 2590 l0 -710 135 0 c149 0 182 8 227 56 30 33 498 830 531 906
l22 50 -3 -506 -3 -506 165 0 166 0 0 710 0 710 -132 0 c-163 0 -201 -14 -253
-94 -64 -98 -479 -812 -504 -868 l-26 -56 3 509 3 509 -166 0 -165 0 0 -710z"/>
<path d="M7120 2591 l0 -711 165 0 165 0 0 235 0 235 88 0 c343 1 539 93 613
288 92 245 6 494 -204 592 -126 59 -154 63 -504 67 l-323 5 0 -711z m643 426
c82 -49 116 -157 83 -269 -32 -111 -106 -148 -296 -148 l-100 0 0 226 0 226
133 -4 c123 -3 135 -5 180 -31z"/>
<path d="M10017 3288 c-2 -7 -125 -323 -272 -703 -147 -379 -269 -693 -272
-697 -2 -5 61 -8 140 -8 197 0 196 -1 258 180 l46 135 271 3 270 2 42 -126
c28 -82 52 -137 70 -158 l28 -31 152 -3 c127 -3 151 -1 148 11 -1 8 -124 327
-273 710 l-270 697 -166 0 c-124 0 -168 -3 -172 -12z m268 -572 c52 -154 95
-283 95 -288 0 -4 -85 -8 -190 -8 -104 0 -190 4 -190 8 0 5 41 129 90 276 50
147 90 275 90 283 0 9 2 14 5 12 2 -3 47 -130 100 -283z"/>
<path d="M5160 1626 c0 -20 48 -56 75 -56 27 0 75 36 75 56 0 20 -14 17 -35
-6 -10 -11 -28 -20 -40 -20 -12 0 -30 9 -40 20 -21 23 -35 26 -35 6z"/>
<path d="M6320 1626 c0 -20 48 -56 75 -56 27 0 75 36 75 56 0 20 -14 17 -35
-6 -10 -11 -28 -20 -40 -20 -12 0 -30 9 -40 20 -21 23 -35 26 -35 6z"/>
<path d="M3710 1446 c0 -159 2 -186 15 -186 12 0 15 15 15 75 l0 75 55 0 c61
0 108 19 125 49 19 37 12 107 -14 138 -23 26 -31 28 -110 32 l-86 3 0 -186z
m167 132 c30 -28 31 -83 1 -115 -18 -19 -32 -23 -80 -23 l-58 0 0 80 0 80 57
0 c44 0 62 -5 80 -22z"/>
<path d="M4054 1531 c-41 -18 -54 -50 -54 -133 0 -67 3 -81 24 -105 21 -25 31
-28 81 -28 49 0 60 4 80 27 43 51 44 165 1 215 -24 28 -94 40 -132 24z m103
-36 c42 -29 38 -171 -7 -195 -31 -16 -78 -12 -100 10 -16 16 -20 33 -20 90 0
57 4 74 20 90 24 24 76 26 107 5z"/>
<path d="M4364 1531 c-41 -18 -54 -50 -54 -133 0 -67 3 -81 24 -105 22 -25 31
-28 85 -28 35 0 65 5 73 13 9 10 0 12 -50 12 -86 0 -102 17 -102 108 0 97 13
112 98 112 45 0 63 3 56 10 -15 15 -105 22 -130 11z"/>
<path d="M4614 1531 c-41 -18 -54 -50 -54 -133 0 -67 3 -81 24 -105 22 -25 31
-28 85 -28 35 0 65 5 73 13 9 10 0 12 -50 12 -86 0 -102 17 -102 108 0 97 13
112 98 112 45 0 63 3 56 10 -15 15 -105 22 -130 11z"/>
<path d="M5494 1531 c-41 -18 -54 -50 -54 -133 0 -67 3 -81 24 -105 22 -25 31
-28 85 -28 35 0 65 5 73 13 10 10 0 12 -50 12 -86 0 -102 17 -102 108 0 97 13
112 98 112 45 0 63 3 56 10 -15 15 -105 22 -130 11z"/>
<path d="M4820 1395 c0 -101 3 -135 13 -135 6 0 48 50 92 111 l80 110 3 -110
c2 -90 5 -111 17 -111 12 0 15 23 15 135 0 112 -2 135 -15 135 -8 0 -49 -48
-92 -106 l-78 -106 -3 106 c-2 85 -6 106 -17 106 -12 0 -15 -23 -15 -135z"/>
<path d="M5130 1395 c0 -101 3 -135 13 -135 6 0 48 50 92 111 l80 110 3 -110
c2 -90 5 -111 17 -111 12 0 15 23 15 135 0 112 -2 135 -15 135 -8 0 -49 -48
-92 -106 l-78 -106 -3 106 c-2 85 -6 106 -17 106 -12 0 -15 -23 -15 -135z"/>
<path d="M5700 1395 c0 -113 2 -135 15 -135 12 0 15 13 15 60 l0 60 38 0 c49
0 65 -14 87 -72 10 -27 24 -48 32 -48 10 0 12 7 8 23 -16 51 -45 107 -56 107
-8 0 -7 5 3 18 15 17 48 94 48 112 0 25 -27 6 -39 -27 -24 -69 -38 -83 -81
-83 l-40 0 0 60 c0 47 -3 60 -15 60 -13 0 -15 -22 -15 -135z"/>
<path d="M5980 1395 c0 -101 3 -135 13 -135 6 0 48 50 92 111 l80 110 3 -110
c2 -90 5 -111 17 -111 12 0 15 23 15 135 0 112 -2 135 -15 135 -8 0 -49 -48
-92 -106 l-78 -106 -3 106 c-2 85 -6 106 -17 106 -12 0 -15 -23 -15 -135z"/>
<path d="M6290 1395 c0 -101 3 -135 13 -135 6 0 48 50 92 111 l80 110 3 -110
c2 -90 5 -111 17 -111 12 0 15 23 15 135 0 112 -2 135 -15 135 -8 0 -49 -48
-92 -106 l-78 -106 -3 106 c-2 85 -6 106 -17 106 -12 0 -15 -23 -15 -135z"/>
<path d="M7770 1066 c0 -20 48 -56 75 -56 27 0 75 36 75 56 0 20 -14 17 -35
-6 -10 -11 -28 -20 -40 -20 -12 0 -30 9 -40 20 -21 23 -35 26 -35 6z"/>
<path d="M4014 971 c-41 -18 -54 -50 -54 -131 0 -116 33 -147 142 -135 78 9
73 25 -7 25 -75 0 -105 20 -105 70 l0 29 93 3 92 3 -2 44 c-3 59 -35 92 -94
97 -24 2 -54 0 -65 -5z m103 -36 c11 -8 23 -28 25 -45 l5 -30 -79 0 c-77 0
-78 0 -78 25 0 55 77 85 127 50z"/>
<path d="M4874 971 c-41 -18 -54 -50 -54 -133 0 -67 3 -81 24 -105 21 -25 31
-28 81 -28 49 0 60 4 80 27 43 51 44 165 1 215 -24 28 -94 40 -132 24z m103
-36 c42 -29 38 -171 -7 -195 -31 -16 -78 -12 -100 10 -16 16 -20 33 -20 90 0
57 4 74 20 90 24 24 76 26 107 5z"/>
<path d="M5494 971 c-41 -18 -54 -50 -54 -133 0 -67 3 -81 24 -105 21 -25 31
-28 81 -28 49 0 60 4 80 27 43 51 44 165 1 215 -24 28 -94 40 -132 24z m103
-36 c42 -29 38 -171 -7 -195 -31 -16 -78 -12 -100 10 -16 16 -20 33 -20 90 0
57 4 74 20 90 24 24 76 26 107 5z"/>
<path d="M6644 971 c-41 -18 -54 -50 -54 -131 0 -116 33 -147 142 -135 78 9
73 25 -7 25 -75 0 -105 20 -105 70 l0 29 93 3 92 3 -2 44 c-3 59 -35 92 -94
97 -24 2 -54 0 -65 -5z m103 -36 c11 -8 23 -28 25 -45 l5 -30 -79 0 c-77 0
-78 0 -78 25 0 55 77 85 127 50z"/>
<path d="M6944 971 c-41 -18 -54 -50 -54 -133 0 -67 3 -81 24 -105 22 -25 31
-28 85 -28 35 0 65 5 73 13 10 10 0 12 -50 12 -86 0 -102 17 -102 108 0 97 13
112 98 112 45 0 63 3 56 10 -15 15 -105 22 -130 11z"/>
<path d="M3680 955 c0 -11 12 -15 45 -15 l45 0 0 -120 c0 -100 3 -120 15 -120
13 0 15 20 15 120 l0 120 45 0 c33 0 45 4 45 15 0 12 -18 15 -105 15 -87 0
-105 -3 -105 -15z"/>
<path d="M4255 943 c10 -16 29 -44 42 -63 12 -19 23 -38 23 -43 0 -4 -18 -35
-40 -67 -44 -65 -46 -70 -26 -70 7 0 30 25 51 56 l37 57 37 -56 c21 -33 43
-57 54 -57 14 0 8 14 -29 69 l-46 69 41 61 c45 66 47 71 27 71 -8 0 -28 -22
-46 -50 -18 -27 -35 -50 -39 -50 -3 0 -21 23 -39 50 -17 28 -39 50 -48 50 -15
0 -14 -3 1 -27z"/>
<path d="M4520 835 c0 -113 2 -135 15 -135 12 0 15 14 15 65 l0 65 80 0 80 0
0 -66 c0 -48 3 -65 13 -61 9 3 12 38 12 132 0 94 -3 129 -12 133 -10 3 -13
-12 -13 -52 l0 -56 -80 0 -80 0 0 55 c0 42 -3 55 -15 55 -13 0 -15 -22 -15
-135z"/>
<path d="M5175 958 c-2 -7 -9 -57 -14 -110 -11 -110 -13 -115 -48 -129 -34
-13 -22 -23 16 -14 40 9 49 28 56 117 10 123 7 118 70 118 l55 0 0 -120 c0
-100 3 -120 15 -120 13 0 15 22 15 135 l0 135 -80 0 c-56 0 -82 -4 -85 -12z"/>
<path d="M5740 835 c0 -113 2 -135 15 -135 13 0 15 20 15 120 l0 120 75 0 c60
0 75 3 75 15 0 12 -17 15 -90 15 l-90 0 0 -135z"/>
<path d="M5990 835 c0 -101 3 -135 13 -135 6 0 48 50 92 111 l80 110 3 -110
c2 -90 5 -111 17 -111 12 0 15 23 15 135 0 112 -2 135 -15 135 -8 0 -49 -48
-92 -106 l-78 -106 -3 106 c-2 85 -6 106 -17 106 -12 0 -15 -23 -15 -135z"/>
<path d="M6290 905 c0 -52 4 -69 20 -85 25 -25 63 -25 118 0 l42 19 0 -70 c0
-52 3 -70 13 -67 8 3 13 42 15 136 2 113 0 132 -13 132 -11 0 -15 -12 -15 -50
0 -56 -19 -76 -84 -87 -52 -8 -66 8 -66 78 0 46 -3 59 -15 59 -12 0 -15 -14
-15 -65z"/>
<path d="M7150 835 c0 -113 2 -135 15 -135 12 0 15 13 15 60 l0 60 38 0 c49 0
65 -14 87 -72 10 -27 24 -48 32 -48 10 0 12 7 8 23 -16 51 -45 107 -56 107 -8
0 -7 5 3 18 15 17 48 94 48 112 0 25 -27 6 -39 -27 -24 -69 -38 -83 -81 -83
l-40 0 0 60 c0 47 -3 60 -15 60 -13 0 -15 -22 -15 -135z"/>
<path d="M7430 835 c0 -101 3 -135 13 -135 6 0 48 50 92 111 l80 110 3 -110
c2 -90 5 -111 17 -111 12 0 15 23 15 135 0 112 -2 135 -15 135 -8 0 -49 -48
-92 -106 l-78 -106 -3 106 c-2 85 -6 106 -17 106 -12 0 -15 -23 -15 -135z"/>
<path d="M7740 835 c0 -101 3 -135 13 -135 6 0 48 50 92 111 l80 110 3 -110
c2 -90 5 -111 17 -111 12 0 15 23 15 135 0 112 -2 135 -15 135 -8 0 -49 -48
-92 -106 l-78 -106 -3 106 c-2 85 -6 106 -17 106 -12 0 -15 -23 -15 -135z"/>
<path d="M4944 401 c-41 -18 -54 -50 -54 -131 0 -116 33 -147 142 -135 78 9
73 25 -7 25 -75 0 -105 20 -105 70 l0 29 93 3 92 3 -2 44 c-3 59 -35 92 -94
97 -24 2 -54 0 -65 -5z m103 -36 c11 -8 23 -28 25 -45 l5 -30 -79 0 c-77 0
-78 0 -78 25 0 55 77 85 127 50z"/>
<path d="M5266 393 c-32 -13 -39 -14 -47 -2 -6 10 -11 11 -19 3 -16 -16 -9
-356 8 -362 9 -3 12 13 12 57 l0 61 28 -7 c53 -15 111 -9 134 15 21 20 23 32
23 118 0 89 -2 97 -24 115 -28 23 -63 23 -115 2z m94 -23 c11 -6 16 -32 18
-89 5 -97 -11 -121 -81 -121 -70 0 -78 12 -75 105 l3 80 35 17 c39 20 77 23
100 8z"/>
<path d="M5544 401 c-41 -18 -54 -50 -54 -133 0 -67 3 -81 24 -105 22 -25 31
-28 85 -28 35 0 65 5 73 12 10 10 0 13 -50 13 -86 0 -102 17 -102 108 0 97 13
112 98 112 45 0 63 3 56 10 -15 15 -105 22 -130 11z"/>
<path d="M6374 401 c-41 -18 -54 -50 -54 -131 0 -116 33 -147 142 -135 78 9
73 25 -7 25 -75 0 -105 20 -105 70 l0 29 93 3 92 3 -2 44 c-3 59 -35 92 -94
97 -24 2 -54 0 -65 -5z m103 -36 c11 -8 23 -28 25 -45 l5 -30 -79 0 c-77 0
-78 0 -78 25 0 55 77 85 127 50z"/>
<path d="M3683 388 c99 -266 98 -262 82 -308 -18 -52 -18 -50 -1 -50 8 0 36
64 75 178 33 97 61 181 61 185 0 4 -6 7 -13 7 -7 0 -28 -48 -50 -115 -21 -63
-40 -115 -42 -115 -1 0 -22 52 -45 115 -28 77 -47 115 -57 115 -8 0 -13 -6
-10 -12z"/>
<path d="M3980 265 c0 -113 2 -135 15 -135 12 0 15 14 15 65 l0 65 80 0 80 0
0 -66 c0 -48 3 -65 13 -61 9 3 12 38 12 132 0 94 -3 129 -12 133 -10 3 -13
-12 -13 -52 l0 -56 -80 0 -80 0 0 55 c0 42 -3 55 -15 55 -13 0 -15 -22 -15
-135z"/>
<path d="M4290 265 c0 -101 3 -135 13 -135 6 0 48 50 92 111 l80 110 3 -110
c2 -90 5 -111 17 -111 12 0 15 23 15 135 0 112 -2 135 -15 135 -8 0 -49 -48
-92 -106 l-78 -106 -3 106 c-2 85 -6 106 -17 106 -12 0 -15 -23 -15 -135z"/>
<path d="M4600 265 l0 -137 86 3 c76 4 88 7 105 28 24 30 24 76 0 100 -17 17
-18 21 -5 32 18 15 18 60 0 85 -12 16 -29 20 -100 23 l-86 3 0 -137z m158 93
c18 -18 14 -46 -7 -58 -11 -5 -42 -10 -70 -10 l-51 0 0 40 0 40 58 0 c32 0 63
-5 70 -12z m6 -114 c9 -8 16 -24 16 -34 0 -35 -28 -50 -91 -50 l-59 0 0 50 0
50 59 0 c41 0 65 -5 75 -16z"/>
<path d="M5750 265 c0 -101 3 -135 13 -135 6 0 48 50 92 111 l80 110 3 -110
c2 -90 5 -111 17 -111 12 0 15 23 15 135 0 112 -2 135 -15 135 -8 0 -49 -48
-92 -106 l-78 -106 -3 106 c-2 85 -6 106 -17 106 -12 0 -15 -23 -15 -135z"/>
<path d="M6050 385 c0 -11 12 -15 45 -15 l45 0 0 -120 c0 -100 3 -120 15 -120
13 0 15 20 15 120 l0 120 45 0 c33 0 45 4 45 15 0 12 -18 15 -105 15 -87 0
-105 -3 -105 -15z"/>
<path d="M6600 385 c0 -11 12 -15 45 -15 l45 0 0 -120 c0 -100 3 -120 15 -120
13 0 15 20 15 120 l0 120 45 0 c33 0 45 4 45 15 0 12 -18 15 -105 15 -87 0
-105 -3 -105 -15z"/>
</g>
</svg>
